<svg width="61" height="61" viewBox="0 0 61 61" fill="none" xmlns="http://www.w3.org/2000/svg">
<circle cx="30.5" cy="30.5" r="30.5" fill="#E9F2FF"/>
<path d="M27.3951 28.0775L26.3979 45.2399L48.0568 42.1452L50.162 27.8521L27.3951 28.0775Z" fill="#8D436D"/>
<path d="M27.5154 28.0775L12.1611 28.1897L13.8785 44.5646L26.1951 45.2399L27.5154 28.0775Z" fill="#F05B6D"/>
<path d="M12.2134 28.6828L13.8314 44.0974C13.8451 44.2278 13.9041 44.349 13.9978 44.4392C14.0915 44.5294 14.2138 44.5827 14.3427 44.5895L26.3976 45.239L47.6307 42.2049C47.7538 42.1874 47.868 42.1299 47.9562 42.0411C48.0444 41.9522 48.102 41.8367 48.1203 41.7118L50.0558 28.5597C50.0687 28.4724 50.0627 28.3832 50.0383 28.2984C50.0139 28.2136 49.9717 28.1351 49.9146 28.0685C49.8574 28.0019 49.7867 27.9487 49.7074 27.9125C49.628 27.8764 49.5418 27.8581 49.4549 27.8591L27.3948 28.0775L12.648 28.1864C12.5864 28.1871 12.5257 28.2009 12.4696 28.2268C12.4136 28.2527 12.3635 28.2903 12.3226 28.337C12.2817 28.3837 12.2509 28.4386 12.2321 28.4982C12.2133 28.5577 12.2069 28.6206 12.2134 28.6828V28.6828Z" stroke="#6E3725" stroke-miterlimit="10"/>
<path d="M12.1697 27.6938L13.3434 23.7576L16.2142 21.1457L19.9979 20.4812L21.7464 20.5691L23.3384 21.3269L25.6151 23.5284L26.9941 26.2606L27.192 27.9267L12 28.0389L12.1697 27.6938Z" fill="#F05B6D"/>
<path d="M22.5386 20.5676L24.9212 22.5944L26.896 25.3678L27.1919 27.9267L49.9182 27.5909L49.7536 25.6186L49.178 23.8966L47.8564 22.4136L46.6531 21.8167L22.5386 20.5676Z" fill="#B4476D"/>
<path d="M49.833 26.1182C49.7221 25.3763 49.5848 24.4601 48.9806 23.5777C48.3163 22.6085 47.4259 22.075 46.9003 21.8651C46.7365 21.8325 46.5706 21.812 46.4038 21.8036L19.7695 20.4225C18.0479 20.3286 16.1979 20.855 14.7098 22.1374C12.6466 23.9149 12.2523 26.4531 12.1783 27.5482C12.174 27.6106 12.1825 27.6733 12.2033 27.7323C12.224 27.7913 12.2565 27.8452 12.2987 27.8908C12.341 27.9364 12.392 27.9727 12.4487 27.9973C12.5054 28.0219 12.5665 28.0343 12.6281 28.0337L26.841 27.9361L49.5252 27.5975C49.5781 27.5967 49.6304 27.5854 49.679 27.564C49.7276 27.5427 49.7716 27.5118 49.8084 27.4732C49.8453 27.4345 49.8742 27.3888 49.8936 27.3387C49.9129 27.2887 49.9224 27.2352 49.9213 27.1814C49.9152 26.8254 49.8857 26.4703 49.833 26.1182V26.1182Z" stroke="#6E3725" stroke-miterlimit="10"/>
<path d="M27.3951 28.0775L26.3979 45.2399" stroke="#6E3725" stroke-miterlimit="10"/>
<path d="M27.1928 27.9267C27.1979 27.79 27.1974 27.6689 27.1928 27.5355C27.08 24.5686 24.4727 21.9154 22.9781 21.1105C22.9781 21.1105 22.0175 20.4812 21.0615 20.4812" stroke="#6E3725" stroke-miterlimit="10"/>
<path d="M27.9966 19.5213C27.9966 19.5213 27.9966 19.1635 27.9966 18.5939C27.9966 17.0911 31.1928 16.97 32.2223 17.0047C35.4805 17.1156 36.9667 17.7232 37.0365 18.499C37.0744 18.9216 37.061 19.9768 37.061 19.9768" stroke="#6E3725" stroke-width="1.60408" stroke-miterlimit="10" stroke-linecap="round"/>
</svg>
