<svg width="208" height="43" viewBox="0 0 208 43" fill="none" xmlns="http://www.w3.org/2000/svg">
<path d="M9.5635 33.2C8.6675 33.2 7.9635 32.496 7.9635 31.6V7.472L0.7635 8.624L0.8915 9.392C1.6595 9.296 2.3635 9.872 2.3635 10.64V31.6C2.3635 32.496 1.6595 33.2 0.7635 33.2V34H9.5635V33.2ZM21.2655 16.048C15.9535 16.048 12.3055 20.432 12.3055 25.392C12.3055 30.544 16.0175 34.352 21.1055 34.352C24.2415 34.352 27.1535 32.24 28.3375 28.848L28.0495 28.72C26.9615 30.704 25.2015 31.344 23.4095 31.408C20.0175 31.536 17.9375 28.528 17.9375 24.4H28.8175C28.9455 19.6 25.9055 16.048 21.2655 16.048ZM18.0335 23.12C18.0335 19.824 19.4095 17.68 21.1375 17.68C22.8655 17.68 24.2415 19.824 24.2415 23.12H18.0335ZM43.9755 17.328V16.048H39.1755V9.2H38.3755C36.5835 13.584 33.5115 16.048 31.1755 16.048V17.328H33.5755V30.096C33.5755 32.432 35.7515 34.352 38.1195 34.352C41.6395 34.352 43.3035 31.856 43.9755 28.976L43.8155 28.912C42.8555 30.864 41.7995 31.376 40.9035 31.376C38.9835 31.376 39.1755 28.976 39.1755 26.864V17.328H43.9755ZM52.546 12.304C52.546 10.16 51.33 8.496 49.474 8.496C47.97 8.496 46.754 9.712 46.754 11.216C46.754 13.264 48.994 14.576 50.69 13.648C50.562 15.248 49.346 16.976 47.266 17.872L47.458 18.16C51.106 16.944 52.546 14.48 52.546 12.304ZM66.2288 23.12C60.4368 20.976 59.9888 20.944 59.9888 19.792C59.9888 17.104 67.0928 16.848 65.8448 19.44C65.1408 20.88 65.8448 22.256 67.2528 22.416C68.8848 22.64 69.9408 20.88 69.5568 19.28C69.0128 16.976 66.1328 15.952 63.0928 15.984C59.9248 16.016 56.0208 17.168 56.0208 21.616C56.0208 24.112 57.4928 26 60.4368 26.96C63.3808 27.92 66.2288 28.688 66.2288 30.48C66.2288 32.016 64.2768 32.88 62.7088 32.88C60.7248 32.88 58.8048 32.144 59.5728 30.512C60.2768 29.072 59.6048 27.696 58.1648 27.504C56.5328 27.312 55.4768 29.04 55.8928 30.672C56.5648 33.36 59.5728 34.64 62.6768 34.608C66.4528 34.544 70.3888 32.56 70.3888 28.752C70.3888 26.416 69.1088 24.176 66.2288 23.12ZM97.7817 17.328V16.048H92.9817V9.2H92.1817C90.3897 13.584 87.3177 16.048 84.9817 16.048V17.328H87.3817V30.096C87.3817 32.432 89.5577 34.352 91.9257 34.352C95.4457 34.352 97.1097 31.856 97.7817 28.976L97.6217 28.912C96.6617 30.864 95.6057 31.376 94.7097 31.376C92.7897 31.376 92.9817 28.976 92.9817 26.864V17.328H97.7817ZM119.728 30.064C118.768 32.016 116.432 33.04 116.432 28.464V23.088C116.432 20.56 115.6 18.608 113.872 17.488C109.808 14.864 102.576 15.984 101.456 20.176C101.2 21.104 101.488 22 101.84 22.512C102.32 23.184 103.216 23.6 104.08 23.472C105.232 23.28 106 22.192 105.808 21.04C105.744 20.72 105.584 20.496 105.456 20.176C104.208 16.912 110.832 16.112 110.832 21.584V23.984C108.4 24.752 100.656 25.2 100.656 30.096C100.656 32.752 102.352 34.384 105.296 34.384C107.664 34.384 109.392 33.104 110.96 31.216C111.408 33.04 112.88 34.416 114.864 34.416C117.712 34.416 119.216 33.008 119.888 30.128L119.728 30.064ZM108.688 31.472C107.12 31.664 106.256 30.576 106.256 29.072C106.256 27.472 108.08 26.384 110.832 25.136V29.968C110.032 30.832 109.232 31.408 108.688 31.472ZM130.801 33.2C129.905 33.2 129.201 32.496 129.201 31.6V7.472L122.001 8.624L122.129 9.392C122.897 9.296 123.601 9.872 123.601 10.64V31.6C123.601 32.496 122.897 33.2 122.001 33.2V34H130.801V33.2ZM144.994 21.328C145.858 20.208 146.626 19.216 147.202 18.448C147.874 17.584 149.378 16.88 151.106 16.848V16.048H144.322V16.848C146.722 16.912 146.594 17.584 145.922 18.448L140.738 25.168V7.472L133.538 8.624L133.666 9.392C134.434 9.296 135.138 9.872 135.138 10.64V31.6C135.138 32.496 134.434 33.2 133.538 33.2V34H142.338V33.2C141.442 33.2 140.738 32.496 140.738 31.6V26.8C141.09 26.384 141.442 25.904 141.794 25.456L145.378 31.6C145.89 32.464 145.538 33.168 144.674 33.2V34H153.506V33.2C152.226 33.168 151.49 32.464 150.978 31.6L144.994 21.328ZM156.308 11.408C156.308 14.256 159.188 26.48 159.188 26.48H159.796C159.796 26.48 162.708 14.256 162.708 11.408C162.708 9.456 161.268 7.888 159.508 7.888C157.716 7.888 156.308 9.456 156.308 11.408ZM156.788 31.76C156.788 33.264 158.004 34.48 159.508 34.48C161.012 34.48 162.228 33.264 162.228 31.76C162.228 30.256 161.012 29.04 159.508 29.04C158.004 29.04 156.788 30.256 156.788 31.76Z" fill="#D99D90"/>
<path d="M187.936 13.4918C190.245 14.8935 192.718 16.0124 195.3 16.8239C192.817 17.9322 190.49 19.3568 188.378 21.0614C186.944 23.3523 185.787 25.8026 184.933 28.3613C183.819 25.9161 182.409 23.6147 180.732 21.508C178.436 20.0615 175.959 18.9176 173.364 18.1052C175.834 16.998 178.159 15.5988 180.29 13.9383C181.708 11.6499 182.841 9.20015 183.664 6.64267C184.812 9.08388 186.246 11.3827 187.936 13.4918V13.4918Z" fill="#FFCBB2"/>
<path d="M201.164 33.1667C202.552 32.8194 203.978 32.6419 205.409 32.6381C204.336 31.681 203.392 30.5878 202.602 29.3862C202.247 27.9937 202.058 26.5641 202.038 25.1272C201.084 26.1947 200.004 27.142 198.821 27.9481C197.432 28.3202 196 28.5098 194.562 28.512C195.629 29.4664 196.576 30.5464 197.383 31.7286C197.73 33.1172 197.908 34.5428 197.912 35.9741C198.882 34.9141 199.973 33.9718 201.164 33.1667V33.1667Z" fill="#F2917C"/>
</svg>
