<svg width="541" height="102" viewBox="0 0 541 102" fill="none" xmlns="http://www.w3.org/2000/svg">
<path d="M68.752 70.4C66.96 70.4 65.552 68.992 65.552 67.2V18.944L51.152 21.248L51.408 22.784C52.944 22.592 54.352 23.744 54.352 25.28V67.2C54.352 68.992 52.944 70.4 51.152 70.4V72H68.752V70.4ZM112.002 70.4C110.21 70.4 108.802 68.992 108.802 67.2V36.16L94.402 38.464L94.658 40C96.194 39.808 97.602 40.96 97.602 42.496V61.696C97.346 62.016 94.786 65.792 91.65 65.792C89.538 65.792 88.002 64.32 88.002 62.72V36.16L73.602 38.464L73.858 40C75.394 39.808 76.802 40.96 76.802 42.496V64.768C76.802 68.032 77.89 72.768 84.482 72.768C92.354 72.768 97.602 64.896 97.602 64.896V67.2C97.602 68.992 96.194 70.4 94.402 70.4V72H112.002V70.4ZM155.186 36.096H141.618V37.696C146.418 37.824 146.162 39.168 144.818 40.896C143.154 43.072 140.914 46.016 138.482 49.152L133.234 40.896C132.21 39.296 132.978 37.952 134.386 37.76V36.096H116.786V37.696C118.578 37.76 120.946 39.168 122.034 40.896C122.674 41.856 127.858 50.048 132.338 57.088L124.466 67.2C123.122 68.928 120.178 70.336 116.786 70.4V72H130.866V70.4C125.49 70.4 125.682 68.992 127.026 67.2C128.498 65.344 130.802 62.272 133.49 58.88L138.802 67.2C139.826 68.8 138.994 70.144 137.586 70.4V72H155.186V70.4C153.458 70.336 151.346 68.992 150.002 67.2C149.362 66.368 144.05 58.048 139.634 50.944L147.378 40.896C148.722 39.168 151.73 37.76 155.186 37.696V36.096ZM175.993 36.096C165.369 36.096 158.073 44.864 158.073 54.784C158.073 65.088 165.497 72.704 175.674 72.704C181.945 72.704 187.77 68.48 190.138 61.696L189.562 61.44C187.385 65.408 183.865 66.688 180.281 66.816C173.497 67.072 169.337 61.056 169.337 52.8H191.097C191.354 43.2 185.274 36.096 175.993 36.096ZM169.529 50.24C169.529 43.648 172.281 39.36 175.737 39.36C179.193 39.36 181.945 43.648 181.945 50.24H169.529ZM243.307 66.816C236.523 67.072 232.363 61.056 232.363 52.8C232.363 43.648 237.419 40.704 239.723 39.872C243.435 38.464 248.107 40.064 245.995 43.584C245.611 44.224 245.291 44.672 245.163 45.312C244.651 47.552 246.059 49.856 248.299 50.368C250.027 50.752 251.691 49.984 252.715 48.704C253.483 47.744 254.251 45.76 253.867 43.968C252.907 38.976 247.787 35.776 239.019 36.16C228.395 36.608 221.099 44.864 221.099 54.784C221.099 65.088 228.523 72.704 238.699 72.704C244.971 72.704 250.795 68.544 253.163 61.696L252.587 61.44C250.411 65.408 246.891 66.688 243.307 66.816ZM288.271 36.992C283.215 34.048 277.903 38.144 274.127 42.88V36.544L259.727 38.848L259.983 40.384C261.519 40.192 262.927 41.344 262.927 42.88V67.2C262.927 68.992 261.519 70.4 259.727 70.4V72H277.327V70.4C275.535 70.4 274.127 68.992 274.127 67.2V47.68C277.775 42.56 284.047 36.864 282.831 41.408C281.871 44.736 283.599 47.424 286.671 47.424C291.727 47.424 292.687 39.552 288.271 36.992ZM313.981 36.096C303.357 36.096 296.061 44.864 296.061 54.784C296.061 65.088 303.485 72.704 313.661 72.704C319.933 72.704 325.757 68.48 328.125 61.696L327.549 61.44C325.373 65.408 321.853 66.688 318.269 66.816C311.485 67.072 307.325 61.056 307.325 52.8H329.085C329.341 43.2 323.261 36.096 313.981 36.096ZM307.517 50.24C307.517 43.648 310.269 39.36 313.725 39.36C317.181 39.36 319.933 43.648 319.933 50.24H307.517ZM373.594 64.128C371.674 68.032 367.002 70.08 367.002 60.928V50.176C367.002 45.12 365.338 41.216 361.882 38.976C353.754 33.728 339.29 35.968 337.05 44.352C336.538 46.208 337.114 48 337.818 49.024C338.778 50.368 340.57 51.2 342.298 50.944C344.602 50.56 346.138 48.384 345.754 46.08C345.626 45.44 345.306 44.992 345.05 44.352C342.554 37.824 355.802 36.224 355.802 47.168V51.968C350.938 53.504 335.45 54.4 335.45 64.192C335.45 69.504 338.842 72.768 344.73 72.768C349.466 72.768 352.922 70.208 356.058 66.432C356.954 70.08 359.898 72.832 363.866 72.832C369.562 72.832 372.57 70.016 373.914 64.256L373.594 64.128ZM351.514 66.944C348.378 67.328 346.65 65.152 346.65 62.144C346.65 58.944 350.298 56.768 355.802 54.272V63.936C354.202 65.664 352.602 66.816 351.514 66.944ZM402.288 38.656V36.096H392.688V22.4H391.088C387.504 31.168 381.36 36.096 376.688 36.096V38.656H381.488V64.192C381.488 68.864 385.84 72.704 390.576 72.704C397.616 72.704 400.944 67.712 402.288 61.952L401.968 61.824C400.048 65.728 397.936 66.752 396.144 66.752C392.304 66.752 392.688 61.952 392.688 57.728V38.656H402.288ZM419.407 22.656C420.431 23.744 424.527 25.472 424.527 25.472C424.527 25.472 420.431 27.264 419.407 28.352C418.319 29.376 416.527 33.472 416.527 33.472C416.527 33.472 414.735 29.376 413.711 28.352C412.687 27.264 408.527 25.472 408.527 25.472C408.527 25.472 412.687 23.744 413.711 22.656C414.735 21.632 416.527 17.472 416.527 17.472C416.527 17.472 418.319 21.632 419.407 22.656ZM422.927 36.544L408.527 38.848L408.783 40.384C410.319 40.192 411.727 41.344 411.727 42.88V67.2C411.727 68.992 410.319 70.4 408.527 70.4V72H426.127V70.4C424.335 70.4 422.927 68.992 422.927 67.2V36.544ZM455.346 36.096V37.696C460.722 37.696 461.298 38.592 460.594 40.896L454.194 62.016L445.874 40.896C445.17 39.168 446.13 37.76 447.858 37.696V36.096H430.514V37.696C432.242 37.76 433.97 39.168 434.674 40.896L446.962 72H453.746L463.154 40.896C463.922 38.656 464.69 37.696 468.914 37.696V36.096H455.346ZM488.668 36.096C478.044 36.096 470.748 44.864 470.748 54.784C470.748 65.088 478.172 72.704 488.348 72.704C494.62 72.704 500.444 68.48 502.812 61.696L502.236 61.44C500.06 65.408 496.54 66.688 492.956 66.816C486.172 67.072 482.012 61.056 482.012 52.8H503.772C504.028 43.2 497.948 36.096 488.668 36.096ZM482.204 50.24C482.204 43.648 484.956 39.36 488.412 39.36C491.868 39.36 494.62 43.648 494.62 50.24H482.204Z" fill="#D99D90"/>
<path d="M20.8704 31.3783C24.0407 33.323 27.4352 34.8758 30.9796 36.0026C27.5723 37.5368 24.3798 39.5094 21.4833 41.8704C19.5166 45.0445 17.9316 48.4396 16.761 51.9853C15.2309 48.5953 13.2934 45.4044 10.9912 42.4832C7.83899 40.4765 4.43873 38.8891 0.876311 37.7609C4.26497 36.2283 7.45555 34.291 10.3784 31.9912C12.3222 28.8205 13.875 25.426 15.0026 21.882C16.5797 25.2665 18.5491 28.4538 20.8704 31.3783V31.3783Z" fill="#F2917C"/>
<path d="M528.944 80.5877C531.556 83.1367 534.468 85.3593 537.616 87.2067C534.022 87.9358 530.539 89.1311 527.254 90.7622C524.683 93.3733 522.43 96.2788 520.54 99.4183C519.811 95.8419 518.649 92.3677 517.08 89.0725C514.498 86.468 511.588 84.211 508.424 82.3584C511.999 81.6268 515.473 80.4648 518.769 78.8979C521.318 76.2851 523.54 73.3733 525.388 70.2261C526.163 73.8074 527.357 77.2851 528.944 80.5877V80.5877Z" fill="#FFCBB3"/>
<path d="M525.314 56.2527C527.433 55.6126 529.621 55.2319 531.831 55.1191C530.102 53.7211 528.563 52.1034 527.253 50.3068C526.601 48.1828 526.201 45.9892 526.064 43.7716C524.671 45.4915 523.073 47.0351 521.307 48.3684C519.189 49.047 516.992 49.4467 514.772 49.5576C516.49 50.9518 518.034 52.549 519.368 54.3143C520.008 56.433 520.389 58.6212 520.502 60.8314C521.921 59.1218 523.536 57.5851 525.314 56.2527V56.2527Z" fill="#F2917C"/>
<path d="M37.858 52.6096C38.7225 51.4688 39.7222 50.4372 40.8353 49.5373C39.399 49.464 37.9785 49.2034 36.6097 48.7623C35.4605 47.8995 34.4171 46.9041 33.5014 45.7966C33.4271 47.2261 33.179 48.6412 32.7623 50.0106C31.913 51.1711 30.916 52.216 29.7967 53.1189C31.226 53.1942 32.641 53.4424 34.0106 53.8579C35.1512 54.7227 36.1828 55.7224 37.083 56.8353C37.1748 55.4012 37.4349 53.9829 37.858 52.6096V52.6096Z" fill="#F2917C"/>
<path d="M34.0421 14.3285C36.0793 13.4639 38.2139 12.8496 40.3991 12.4993C38.5293 11.2958 36.8247 9.85331 35.3285 8.2084C34.4513 6.16704 33.8181 4.02926 33.4421 1.83943C32.2426 3.69934 30.8209 5.40612 29.2084 6.92201C27.1763 7.82475 25.0353 8.4589 22.8394 8.80845C24.6983 10.0093 26.4049 11.4309 27.922 13.0422C28.7861 15.0795 29.4003 17.2141 29.7512 19.3991C30.9779 17.5466 32.4181 15.8447 34.0421 14.3285Z" fill="#FFCBB2"/>
</svg>
