<svg width="183" height="124" viewBox="0 0 183 124" fill="none" xmlns="http://www.w3.org/2000/svg">
<g filter="url(#filter0_d_1991_3660)">
<rect x="5.75" y="3.75" width="167.5" height="108.5" rx="4.25" fill="#6181BC" stroke="#6181BC" stroke-width="1.5"/>
<path d="M23.242 27L18.846 17.13H20.764L24.026 24.704L27.288 17.13H29.136L24.74 27H23.242ZM30.0585 27V17.13H31.8505V27H30.0585ZM37.398 27.14C36.6233 27.14 35.9046 27.042 35.242 26.846C34.5793 26.6407 34.0193 26.3653 33.562 26.02L34.108 24.606C34.5653 24.9327 35.0646 25.1847 35.606 25.362C36.1566 25.5393 36.754 25.628 37.398 25.628C38.1353 25.628 38.672 25.5067 39.008 25.264C39.344 25.012 39.512 24.69 39.512 24.298C39.512 23.9713 39.3906 23.7147 39.148 23.528C38.9146 23.3413 38.5086 23.1873 37.93 23.066L36.39 22.744C34.6353 22.3707 33.758 21.47 33.758 20.042C33.758 19.426 33.9213 18.8893 34.248 18.432C34.5746 17.9747 35.0273 17.62 35.606 17.368C36.1846 17.116 36.852 16.99 37.608 16.99C38.28 16.99 38.91 17.0927 39.498 17.298C40.086 17.494 40.576 17.774 40.968 18.138L40.422 19.482C39.6473 18.8287 38.7046 18.502 37.594 18.502C36.95 18.502 36.446 18.6373 36.082 18.908C35.718 19.1787 35.536 19.5333 35.536 19.972C35.536 20.308 35.648 20.5787 35.872 20.784C36.096 20.98 36.4786 21.134 37.02 21.246L38.546 21.568C39.47 21.764 40.156 22.072 40.604 22.492C41.0613 22.912 41.29 23.472 41.29 24.172C41.29 24.76 41.1313 25.278 40.814 25.726C40.4966 26.174 40.044 26.524 39.456 26.776C38.8773 27.0187 38.1913 27.14 37.398 27.14ZM41.6956 27L46.1616 17.13H47.6316L52.0976 27H50.2776L49.2976 24.718H44.4816L43.5156 27H41.6956ZM46.8756 19.076L45.0976 23.29H48.6816L46.9036 19.076H46.8756Z" fill="white"/>
<path d="M18.94 62L21.63 58.41L19.04 54.95H20.53L22.36 57.48L24.19 54.95H25.69L23.1 58.41L25.78 62H24.28L22.36 59.36L20.45 62H18.94ZM25.6587 62L28.3488 58.41L25.7588 54.95H27.2488L29.0788 57.48L30.9088 54.95H32.4088L29.8188 58.41L32.4988 62H30.9987L29.0788 59.36L27.1688 62H25.6587ZM32.3775 62L35.0675 58.41L32.4775 54.95H33.9675L35.7975 57.48L37.6275 54.95H39.1275L36.5375 58.41L39.2175 62H37.7175L35.7975 59.36L33.8875 62H32.3775ZM39.0962 62L41.7863 58.41L39.1963 54.95H40.6863L42.5163 57.48L44.3463 54.95H45.8463L43.2563 58.41L45.9363 62H44.4362L42.5163 59.36L40.6063 62H39.0962ZM48.5103 62L51.2003 58.41L48.6103 54.95H50.1003L51.9303 57.48L53.7603 54.95H55.2603L52.6703 58.41L55.3503 62H53.8503L51.9303 59.36L50.0203 62H48.5103ZM55.2291 62L57.9191 58.41L55.3291 54.95H56.8191L58.6491 57.48L60.4791 54.95H61.9791L59.3891 58.41L62.0691 62H60.5691L58.6491 59.36L56.7391 62H55.2291ZM61.9478 62L64.6378 58.41L62.0478 54.95H63.5378L65.3678 57.48L67.1978 54.95H68.6978L66.1078 58.41L68.7878 62H67.2878L65.3678 59.36L63.4578 62H61.9478ZM68.6666 62L71.3566 58.41L68.7666 54.95H70.2566L72.0866 57.48L73.9166 54.95H75.4166L72.8266 58.41L75.5066 62H74.0066L72.0866 59.36L70.1766 62H68.6666ZM78.0806 62L80.7706 58.41L78.1806 54.95H79.6706L81.5006 57.48L83.3306 54.95H84.8306L82.2406 58.41L84.9206 62H83.4206L81.5006 59.36L79.5906 62H78.0806ZM84.7994 62L87.4894 58.41L84.8994 54.95H86.3894L88.2194 57.48L90.0494 54.95H91.5494L88.9594 58.41L91.6394 62H90.1394L88.2194 59.36L86.3094 62H84.7994ZM91.5181 62L94.2081 58.41L91.6181 54.95H93.1081L94.9381 57.48L96.7681 54.95H98.2681L95.6781 58.41L98.3581 62H96.8581L94.9381 59.36L93.0281 62H91.5181ZM98.2369 62L100.927 58.41L98.3369 54.95H99.8269L101.657 57.48L103.487 54.95H104.987L102.397 58.41L105.077 62H103.577L101.657 59.36L99.7469 62H98.2369ZM108.801 62V60.94H110.391V56.41L109.161 57.15L108.661 56.21L110.761 54.95H111.671V60.94H113.161V62H108.801ZM114.507 62V61.05L116.787 58.62C117.094 58.2867 117.314 57.9933 117.447 57.74C117.58 57.48 117.647 57.2167 117.647 56.95C117.647 56.27 117.237 55.93 116.417 55.93C115.777 55.93 115.187 56.17 114.647 56.65L114.217 55.69C114.497 55.4367 114.847 55.2333 115.267 55.08C115.687 54.9267 116.124 54.85 116.577 54.85C117.33 54.85 117.907 55.02 118.307 55.36C118.714 55.7 118.917 56.1867 118.917 56.82C118.917 57.2467 118.814 57.6567 118.607 58.05C118.407 58.4433 118.09 58.8667 117.657 59.32L116.107 60.94H119.187V62H114.507ZM122.563 62.1C122.083 62.1 121.623 62.03 121.183 61.89C120.75 61.7433 120.39 61.5467 120.103 61.3L120.523 60.32C121.123 60.7867 121.79 61.02 122.523 61.02C123.423 61.02 123.873 60.6667 123.873 59.96C123.873 59.6267 123.76 59.38 123.533 59.22C123.313 59.0533 122.99 58.97 122.563 58.97H121.433V57.91H122.443C122.816 57.91 123.113 57.82 123.333 57.64C123.553 57.4533 123.663 57.1967 123.663 56.87C123.663 56.5633 123.56 56.33 123.353 56.17C123.153 56.01 122.86 55.93 122.473 55.93C121.78 55.93 121.17 56.17 120.643 56.65L120.223 55.69C120.503 55.4233 120.853 55.2167 121.273 55.07C121.693 54.9233 122.13 54.85 122.583 54.85C123.316 54.85 123.886 55.0167 124.293 55.35C124.7 55.6767 124.903 56.1333 124.903 56.72C124.903 57.1 124.806 57.4333 124.613 57.72C124.42 58.0067 124.156 58.2133 123.823 58.34C124.23 58.4533 124.546 58.6633 124.773 58.97C125 59.27 125.113 59.6367 125.113 60.07C125.113 60.6967 124.886 61.1933 124.433 61.56C123.98 61.92 123.356 62.1 122.563 62.1ZM129.189 62V60.66H126.119V59.72L129.409 54.95H130.469V59.6H131.459V60.66H130.469V62H129.189ZM129.189 59.6V56.91L127.349 59.6H129.189Z" fill="white"/>
<path d="M18.99 100.09L18.9 99.04L19.61 99C20.2033 98.96 20.5 98.6333 20.5 98.02V92.95H21.78V98.01C21.78 99.2767 21.1233 99.9567 19.81 100.05L18.99 100.09ZM25.4347 100.1C24.928 100.1 24.488 99.9967 24.1147 99.79C23.7414 99.5833 23.4514 99.29 23.2447 98.91C23.038 98.5233 22.9347 98.07 22.9347 97.55C22.9347 97.03 23.038 96.58 23.2447 96.2C23.4514 95.82 23.7414 95.5267 24.1147 95.32C24.488 95.1133 24.928 95.01 25.4347 95.01C25.9414 95.01 26.3814 95.1133 26.7547 95.32C27.128 95.5267 27.418 95.82 27.6247 96.2C27.8314 96.58 27.9347 97.03 27.9347 97.55C27.9347 98.07 27.8314 98.5233 27.6247 98.91C27.418 99.29 27.128 99.5833 26.7547 99.79C26.3814 99.9967 25.9414 100.1 25.4347 100.1ZM25.4347 99.15C25.808 99.15 26.108 99.0167 26.3347 98.75C26.5614 98.4767 26.6747 98.0767 26.6747 97.55C26.6747 97.0167 26.5614 96.62 26.3347 96.36C26.108 96.0933 25.808 95.96 25.4347 95.96C25.0614 95.96 24.7614 96.0933 24.5347 96.36C24.308 96.62 24.1947 97.0167 24.1947 97.55C24.1947 98.0767 24.308 98.4767 24.5347 98.75C24.7614 99.0167 25.0614 99.15 25.4347 99.15ZM28.9664 100V92.95H30.2164V95.82C30.3831 95.5533 30.6064 95.3533 30.8864 95.22C31.1664 95.08 31.4764 95.01 31.8164 95.01C32.9697 95.01 33.5464 95.68 33.5464 97.02V100H32.2964V97.08C32.2964 96.7 32.2231 96.4233 32.0764 96.25C31.9364 96.0767 31.7164 95.99 31.4164 95.99C31.0497 95.99 30.7564 96.1067 30.5364 96.34C30.3231 96.5667 30.2164 96.87 30.2164 97.25V100H28.9664ZM34.816 100V95.11H36.036V95.87C36.2027 95.59 36.426 95.3767 36.706 95.23C36.9927 95.0833 37.3127 95.01 37.666 95.01C38.8193 95.01 39.396 95.68 39.396 97.02V100H38.146V97.08C38.146 96.7 38.0727 96.4233 37.926 96.25C37.786 96.0767 37.566 95.99 37.266 95.99C36.8993 95.99 36.606 96.1067 36.386 96.34C36.1727 96.5667 36.066 96.87 36.066 97.25V100H34.816ZM43.4809 100V92.95H46.1009C47.2809 92.95 48.1909 93.2533 48.8309 93.86C49.4776 94.4667 49.8009 95.3367 49.8009 96.47C49.8009 97.5967 49.4776 98.4667 48.8309 99.08C48.1909 99.6933 47.2809 100 46.1009 100H43.4809ZM44.7609 98.94H46.0209C47.6476 98.94 48.4609 98.1167 48.4609 96.47C48.4609 94.83 47.6476 94.01 46.0209 94.01H44.7609V98.94ZM53.2081 100.1C52.7015 100.1 52.2615 99.9967 51.8881 99.79C51.5148 99.5833 51.2248 99.29 51.0181 98.91C50.8115 98.5233 50.7081 98.07 50.7081 97.55C50.7081 97.03 50.8115 96.58 51.0181 96.2C51.2248 95.82 51.5148 95.5267 51.8881 95.32C52.2615 95.1133 52.7015 95.01 53.2081 95.01C53.7148 95.01 54.1548 95.1133 54.5281 95.32C54.9015 95.5267 55.1915 95.82 55.3981 96.2C55.6048 96.58 55.7081 97.03 55.7081 97.55C55.7081 98.07 55.6048 98.5233 55.3981 98.91C55.1915 99.29 54.9015 99.5833 54.5281 99.79C54.1548 99.9967 53.7148 100.1 53.2081 100.1ZM53.2081 99.15C53.5815 99.15 53.8815 99.0167 54.1081 98.75C54.3348 98.4767 54.4481 98.0767 54.4481 97.55C54.4481 97.0167 54.3348 96.62 54.1081 96.36C53.8815 96.0933 53.5815 95.96 53.2081 95.96C52.8348 95.96 52.5348 96.0933 52.3081 96.36C52.0815 96.62 51.9681 97.0167 51.9681 97.55C51.9681 98.0767 52.0815 98.4767 52.3081 98.75C52.5348 99.0167 52.8348 99.15 53.2081 99.15ZM59.1498 100.1C58.5965 100.1 58.1198 99.9967 57.7198 99.79C57.3198 99.5833 57.0098 99.29 56.7898 98.91C56.5765 98.53 56.4698 98.08 56.4698 97.56C56.4698 97.0533 56.5732 96.61 56.7798 96.23C56.9932 95.85 57.2832 95.5533 57.6498 95.34C58.0232 95.12 58.4465 95.01 58.9198 95.01C59.6132 95.01 60.1598 95.23 60.5598 95.67C60.9665 96.11 61.1698 96.71 61.1698 97.47V97.84H57.6698C57.7632 98.7133 58.2632 99.15 59.1698 99.15C59.4432 99.15 59.7165 99.11 59.9898 99.03C60.2632 98.9433 60.5132 98.81 60.7398 98.63L61.0898 99.47C60.8565 99.6633 60.5632 99.8167 60.2098 99.93C59.8565 100.043 59.5032 100.1 59.1498 100.1ZM58.9698 95.86C58.6032 95.86 58.3065 95.9733 58.0798 96.2C57.8532 96.4267 57.7165 96.7333 57.6698 97.12H60.1298C60.1032 96.7133 59.9898 96.4033 59.7898 96.19C59.5965 95.97 59.3232 95.86 58.9698 95.86Z" fill="white"/>
<path d="M134.09 100V98.94H135.68V94.41L134.45 95.15L133.95 94.21L136.05 92.95H136.96V98.94H138.45V100H134.09ZM140.086 100V98.94H141.676V94.41L140.446 95.15L139.946 94.21L142.046 92.95H142.956V98.94H144.446V100H140.086ZM145.732 100.71L144.792 100.43L147.382 92.4L148.322 92.68L145.732 100.71ZM148.927 100V99.05L151.207 96.62C151.514 96.2867 151.734 95.9933 151.867 95.74C152 95.48 152.067 95.2167 152.067 94.95C152.067 94.27 151.657 93.93 150.837 93.93C150.197 93.93 149.607 94.17 149.067 94.65L148.637 93.69C148.917 93.4367 149.267 93.2333 149.687 93.08C150.107 92.9267 150.544 92.85 150.997 92.85C151.75 92.85 152.327 93.02 152.727 93.36C153.134 93.7 153.337 94.1867 153.337 94.82C153.337 95.2467 153.234 95.6567 153.027 96.05C152.827 96.4433 152.51 96.8667 152.077 97.32L150.527 98.94H153.607V100H148.927ZM157.183 100.1C156.723 100.1 156.276 100.03 155.843 99.89C155.41 99.7433 155.056 99.5467 154.783 99.3L155.203 98.32C155.81 98.7867 156.463 99.02 157.163 99.02C157.583 99.02 157.91 98.9133 158.143 98.7C158.383 98.48 158.503 98.1867 158.503 97.82C158.503 97.4467 158.39 97.1467 158.163 96.92C157.936 96.6867 157.626 96.57 157.233 96.57C156.673 96.57 156.21 96.7933 155.843 97.24H154.983V92.95H159.313V94.01H156.233V95.92C156.586 95.6533 157.02 95.52 157.533 95.52C157.98 95.52 158.366 95.6167 158.693 95.81C159.026 95.9967 159.283 96.26 159.463 96.6C159.65 96.9333 159.743 97.3233 159.743 97.77C159.743 98.23 159.64 98.6367 159.433 98.99C159.226 99.3367 158.93 99.61 158.543 99.81C158.163 100.003 157.71 100.1 157.183 100.1Z" fill="white"/>
</g>
<defs>
<filter id="filter0_d_1991_3660" x="0" y="0" width="183" height="124" filterUnits="userSpaceOnUse" color-interpolation-filters="sRGB">
<feFlood flood-opacity="0" result="BackgroundImageFix"/>
<feColorMatrix in="SourceAlpha" type="matrix" values="0 0 0 0 0 0 0 0 0 0 0 0 0 0 0 0 0 0 127 0" result="hardAlpha"/>
<feOffset dx="2" dy="4"/>
<feGaussianBlur stdDeviation="3.5"/>
<feComposite in2="hardAlpha" operator="out"/>
<feColorMatrix type="matrix" values="0 0 0 0 0 0 0 0 0 0 0 0 0 0 0 0 0 0 0.25 0"/>
<feBlend mode="normal" in2="BackgroundImageFix" result="effect1_dropShadow_1991_3660"/>
<feBlend mode="normal" in="SourceGraphic" in2="effect1_dropShadow_1991_3660" result="shape"/>
</filter>
</defs>
</svg>
