<svg width="14" height="14" viewBox="0 0 14 14" fill="none" xmlns="http://www.w3.org/2000/svg">
<path d="M7 6.125C7.48325 6.125 7.875 5.73325 7.875 5.25C7.875 4.76675 7.48325 4.375 7 4.375C6.51675 4.375 6.125 4.76675 6.125 5.25C6.125 5.73325 6.51675 6.125 7 6.125Z" fill="white"/>
<path d="M7 0.875C4.58773 0.875 2.625 2.75215 2.625 5.05859C2.625 6.15699 3.12566 7.61769 4.11305 9.40023C4.90602 10.8314 5.8234 12.1256 6.30055 12.7695C6.38117 12.8796 6.48659 12.969 6.60826 13.0307C6.72993 13.0924 6.86441 13.1245 7.00082 13.1245C7.13723 13.1245 7.27172 13.0924 7.39338 13.0307C7.51505 12.969 7.62047 12.8796 7.70109 12.7695C8.17742 12.1256 9.09563 10.8314 9.88859 9.40023C10.8743 7.61824 11.375 6.15754 11.375 5.05859C11.375 2.75215 9.41227 0.875 7 0.875ZM7 7C6.65388 7 6.31554 6.89736 6.02775 6.70507C5.73997 6.51278 5.51566 6.23947 5.38321 5.9197C5.25076 5.59993 5.2161 5.24806 5.28363 4.90859C5.35115 4.56912 5.51782 4.2573 5.76256 4.01256C6.0073 3.76782 6.31913 3.60115 6.65859 3.53363C6.99806 3.4661 7.34993 3.50076 7.6697 3.63321C7.98947 3.76566 8.26278 3.98997 8.45507 4.27775C8.64736 4.56554 8.75 4.90388 8.75 5.25C8.74949 5.71397 8.56496 6.1588 8.23688 6.48688C7.9088 6.81496 7.46397 6.99949 7 7Z" fill="white"/>
</svg>
